<?xml version="1.0" encoding="UTF-8" standalone="no"?>
<!-- Created with Inkscape (http://www.inkscape.org/) -->

<svg
   xmlns:dc="http://purl.org/dc/elements/1.1/"
   xmlns:cc="http://creativecommons.org/ns#"
   xmlns:rdf="http://www.w3.org/1999/02/22-rdf-syntax-ns#"
   xmlns:svg="http://www.w3.org/2000/svg"
   xmlns="http://www.w3.org/2000/svg"
   xmlns:sodipodi="http://sodipodi.sourceforge.net/DTD/sodipodi-0.dtd"
   xmlns:inkscape="http://www.inkscape.org/namespaces/inkscape"
   version="1.1"
   id="svg4044"
   width="1840"
   height="1840"
   viewBox="0 0 1840 1840"
   sodipodi:docname="logo3.svg"
   inkscape:version="0.92.1 r15371">
  <metadata
     id="metadata4050">
    <rdf:RDF>
      <cc:Work
         rdf:about="">
        <dc:format>image/svg+xml</dc:format>
        <dc:type
           rdf:resource="http://purl.org/dc/dcmitype/StillImage" />
        <dc:title></dc:title>
      </cc:Work>
    </rdf:RDF>
  </metadata>
  <defs
     id="defs4048" />
  <sodipodi:namedview
     pagecolor="#000000"
     bordercolor="#666666"
     borderopacity="1"
     objecttolerance="10"
     gridtolerance="10"
     guidetolerance="10"
     inkscape:pageopacity="0"
     inkscape:pageshadow="2"
     inkscape:window-width="1366"
     inkscape:window-height="728"
     id="namedview4046"
     showgrid="false"
     showguides="true"
     units="px"
     inkscape:zoom="0.36277652"
     inkscape:cx="1395.762"
     inkscape:cy="717.54338"
     inkscape:window-x="0"
     inkscape:window-y="0"
     inkscape:window-maximized="1"
     inkscape:current-layer="layer7" />
  <g
     inkscape:groupmode="layer"
     id="layer7"
     inkscape:label="Layer 4">
    <path
       style="fill:#ffffff;stroke-width:1.99751723"
       d="m 858.95181,623.65462 c -7.78539,-6.58687 -13.28972,-12.28512 -12.23184,-12.66277 1.05788,-0.37767 4.27753,0.96965 7.15482,2.99403 119.89362,64.21363 116.79847,58.12829 337.14131,201.49415 55.4602,-40.21355 16.3843,-12.53431 74.1651,-55.06619 1.0286,-0.018 3.7273,-1.75979 5.9971,-3.87168 105.1819,87.26575 231.3926,189.65971 309.3145,261.61604 -0.4572,34.0672 -2.4393,67.6511 -2.3368,99.4009 0,45.6678 -0.5364,56.5591 -3.0171,61.2598 -0.9232,15.1167 3.2238,23.2347 -24.5501,34.6595 C 1302.9351,1012.387 1090.9739,820.15432 858.95181,623.65462 Z"
       id="path4314"
       inkscape:connector-curvature="0"
       sodipodi:nodetypes="ccccccccccc" />
    <path
       sodipodi:nodetypes="cccccccccc"
       inkscape:connector-curvature="0"
       id="path4332"
       d="m 858.95181,623.65462 c -7.78539,-6.58687 -13.28972,-12.28512 -12.23184,-12.66277 1.05788,-0.37767 4.27753,0.96965 7.15482,2.99403 119.89362,64.21363 116.79847,58.12829 337.14131,201.49415 55.4602,-40.21355 16.3843,-12.53431 74.1651,-55.06619 1.0286,-0.018 3.7273,-1.75979 5.9971,-3.87168 105.1819,87.26575 225.0578,187.71055 302.9797,259.66694 -19.328,80.243 1.2076,74.0509 0.9809,162.6098 -11.5658,29.5286 -2.5215,20.7255 -24.5501,34.6595 C 1302.9351,1012.387 1090.9739,820.15432 858.95181,623.65462 Z"
       style="fill:#ffffff;stroke-width:1.99751723" />
    <path
       style="fill:#ffffff;stroke-width:1.99751723"
       d="m 858.95181,623.65462 c -7.78539,-6.58687 -13.28972,-12.28512 -12.23184,-12.66277 1.05788,-0.37767 4.27753,0.96965 7.15482,2.99403 119.89362,64.21363 116.79847,58.12829 337.14131,201.49415 55.4602,-40.21355 16.3843,-12.53431 74.1651,-55.06619 1.0286,-0.018 3.7273,-1.75979 5.9971,-3.87168 105.1819,87.26575 225.0578,187.71055 302.9797,259.66694 -19.328,80.243 1.2076,74.0509 0.9809,162.6098 -11.5658,29.5286 -2.5215,20.7255 -24.5501,34.6595 C 1302.9351,1012.387 1090.9739,820.15432 858.95181,623.65462 Z"
       id="path4334"
       inkscape:connector-curvature="0"
       sodipodi:nodetypes="cccccccccc" />
    <path
       sodipodi:nodetypes="ccccccccccc"
       inkscape:connector-curvature="0"
       id="path4336"
       d="m 858.95181,623.65462 c -7.78539,-6.58687 -13.28972,-12.28512 -12.23184,-12.66277 1.05788,-0.37767 4.27753,0.96965 7.15482,2.99403 119.89362,64.21363 116.79847,58.12829 337.14131,201.49415 55.4602,-40.21355 16.3843,-12.53431 74.1651,-55.06619 1.0286,-0.018 3.7273,-1.75979 5.9971,-3.87168 105.1819,87.26575 231.3926,189.65971 309.3145,261.61604 -0.4572,34.0672 -2.4393,67.6511 -2.3368,99.4009 0,45.6678 0.1527,-9.9419 -1.6388,65.3946 -3.3352,15.1167 1.8455,19.0999 -25.9284,30.5247 C 1302.9351,1012.387 1090.9739,820.15432 858.95181,623.65462 Z"
       style="fill:#ffffff;stroke-width:1.99751723" />
    <path
       style="fill:#ffffff;stroke-width:1.99751723"
       d="m 858.95181,623.65462 c -7.78539,-6.58687 -13.28972,-12.28512 -12.23184,-12.66277 1.05788,-0.37767 4.27753,0.96965 7.15482,2.99403 119.89362,64.21363 116.79847,58.12829 337.14131,201.49415 55.4602,-40.21355 16.3843,-12.53431 74.1651,-55.06619 1.0286,-0.018 3.7273,-1.75979 5.9971,-3.87168 105.1819,87.26575 231.3926,189.65971 309.3145,261.61604 -0.4572,34.0672 -2.4393,67.6511 -2.3368,99.4009 0,45.6678 0.1527,-9.9419 -1.6388,65.3946 -3.3352,15.1167 1.8455,19.0999 -25.9284,30.5247 C 1302.9351,1012.387 1090.9739,820.15432 858.95181,623.65462 Z"
       id="path4338"
       inkscape:connector-curvature="0"
       sodipodi:nodetypes="ccccccccccc" />
  </g>
</svg>
